<?xml version="1.0" encoding="utf-8"?>
<!-- Generator: Adobe Illustrator 16.0.0, SVG Export Plug-In . SVG Version: 6.00 Build 0)  -->
<!DOCTYPE svg PUBLIC "-//W3C//DTD SVG 1.1//EN" "http://www.w3.org/Graphics/SVG/1.1/DTD/svg11.dtd">
<svg version="1.1" id="圖層_1" xmlns="http://www.w3.org/2000/svg" xmlns:xlink="http://www.w3.org/1999/xlink" x="0px" y="0px"
	 width="251.642px" height="250.945px" viewBox="0 0 251.642 250.945" enable-background="new 0 0 251.642 250.945"
	 xml:space="preserve">
<circle fill="#232040" cx="125.821" cy="125.124" r="125.821"/>
<g>
	<path fill="#FFFFFF" d="M65.608,110.158H30.854V140h34.755v-10.483H47.417v-8.029h29.007v16.237c0,4.312-0.814,7.249-2.443,8.81
		c-1.629,1.562-4.768,2.342-9.414,2.342H31.578c-4.646,0-7.784-0.78-9.414-2.342c-1.629-1.561-2.443-4.497-2.443-8.81v-24.844
		c0-4.284,0.813-7.211,2.443-8.789c1.629-1.579,4.767-2.362,9.414-2.362h32.989c4.587,0,7.709,0.77,9.368,2.316
		c1.659,1.547,2.489,4.341,2.489,8.387v1.071l-10.815,1.918V110.158z"/>
	<path fill="#FFFFFF" d="M140.096,110.158h-30.002V140h30.002v-10.126l11.133,2.274v5.576c0,4.312-0.822,7.249-2.467,8.81
		c-1.645,1.562-4.775,2.342-9.389,2.342h-28.555c-4.646,0-7.784-0.78-9.414-2.342c-1.629-1.561-2.443-4.497-2.443-8.81v-24.844
		c0-4.284,0.813-7.211,2.443-8.789c1.629-1.579,4.767-2.362,9.414-2.362h28.555c4.613,0,7.744,0.783,9.389,2.362
		c1.645,1.578,2.467,4.505,2.467,8.789v4.459l-11.133,1.739V110.158z"/>
	<path fill="#FFFFFF" d="M174.172,148.876V101.73h30.773c8.779,0,15.527,2.022,20.252,6.062c4.719,4.047,7.08,9.787,7.08,17.221
		c0,4.403-0.92,8.365-2.76,11.887c-1.842,3.524-4.432,6.301-7.785,8.32c-2.08,1.277-4.67,2.208-7.756,2.789
		c-3.094,0.578-7.057,0.868-11.881,0.868H174.172z M185.303,140h14.393c7.666,0,13.094-1.177,16.289-3.525
		c3.199-2.349,4.799-6.227,4.799-11.641c0-4.82-1.326-8.467-3.979-10.952c-2.656-2.481-6.58-3.725-11.768-3.725h-19.734V140z"/>
</g>
</svg>
