<svg xmlns="http://www.w3.org/2000/svg" viewBox="0 0 212.56 47.15"><defs><style>.cls-1{fill:#fff;}</style></defs><g id="圖層_2" data-name="圖層 2"><g id="圖層_1-2" data-name="圖層 1"><path class="cls-1" d="M45.89,8.43H11.13V38.27H45.89V27.79H27.69v-8h29V36q0,6.47-2.44,8.8t-9.41,2.35h-33q-7,0-9.42-2.35T0,36V11.15Q0,4.73,2.44,2.36C4.07.78,7.21,0,11.86,0h33q6.87,0,9.36,2.32c1.66,1.54,2.49,4.34,2.49,8.38v1.07L45.89,13.69Z"/><path class="cls-1" d="M120.37,8.43h-30V38.27h30V28.14l11.14,2.28V36q0,6.47-2.47,8.8t-9.39,2.35H91.1q-7,0-9.42-2.35T79.24,36V11.15q0-6.42,2.44-8.79C83.31.78,86.45,0,91.1,0h28.55c4.62,0,7.75.78,9.39,2.36s2.47,4.51,2.47,8.79v4.46l-11.14,1.74Z"/><path class="cls-1" d="M154.45,47.15V0h30.77q13.17,0,20.26,6.06t7.08,17.22a25.27,25.27,0,0,1-2.76,11.89A20.82,20.82,0,0,1,202,43.49a22.75,22.75,0,0,1-7.76,2.79,66.41,66.41,0,0,1-11.88.87Zm11.13-8.88H180q11.5,0,16.29-3.52t4.8-11.65c0-4.82-1.32-8.46-4-11s-6.58-3.72-11.77-3.72H165.58Z"/></g></g></svg>